PathFileType	4	(X/Y/Z)	D:\TRACE\v60_Jaco2_6-2-23\JustBodyDRS_Motion2_8-platform.trc
DataRate	CameraRate	NumFrames	NumMarkers	Units	OrigDataRate	OrigDataStartFrame	OrigNumFrames
100.00	100.00	      41	5	mm	100.00	1729	      6914
Frame#	Time	Left_Front			Right_Front			Left_Aft			Right_Aft			Post			
		X1	Y1	Z1	X2	Y2	Z2	X3	Y3	Z3	X4	Y4	Z4	X5	Y5	Z5	

1729	17.280	-835.47430	0.68649	-640.69507	734.44794	1.85953	-645.63977	-743.62152	13.56033	494.56107	698.36829	12.51949	503.68829	-49.31770	1295.91357	-981.00482	
1730	17.290	-836.60364	-0.76148	-640.85486	733.59869	0.38896	-645.95050	-744.49341	14.57670	494.34882	697.47076	13.52707	503.39545	-50.30015	1293.79321	-984.59686	
1731	17.300	-837.67609	-2.35916	-641.12091	732.77887	-0.82144	-646.28217	-745.45898	15.49599	493.97894	696.91968	14.79745	503.04767	-50.61536	1291.42847	-987.99042	
1732	17.310	-838.60931	-3.57037	-641.31213	731.74060	-2.48081	-646.79456	-746.39246	16.42708	493.68063	695.53021	15.52160	502.75723	-51.89391	1289.30554	-991.09882	
1733	17.320	-839.24243	-5.24024	-641.92230	730.84045	-3.92682	-646.87280	-747.27173	17.30046	493.34479	694.88214	16.56950	502.45978	-53.10619	1287.10510	-994.05426	
1734	17.330	-840.16345	-6.53392	-642.06085	730.09662	-5.10817	-647.06775	-748.26947	18.38038	493.02393	694.18976	17.67256	501.98898	-53.69980	1285.06396	-997.00604	
1735	17.340	-840.63904	-7.51635	-642.47571	728.88141	-6.92232	-647.70764	-748.89569	19.24759	492.60284	692.90668	18.51227	501.53036	-54.70344	1282.98462	-999.78796	
1736	17.350	-841.54010	-9.28211	-642.77838	728.09515	-8.25177	-648.04535	-749.58832	20.25544	492.17242	692.54358	19.64450	501.38144	-55.42506	1280.95007	-1002.31061	
1737	17.360	-842.48029	-10.45897	-642.99829	727.22009	-9.52716	-648.34247	-750.63562	21.21179	491.81915	692.04742	20.79553	501.07098	-56.20767	1278.84521	-1004.72919	
1738	17.370	-843.37207	-12.12706	-643.23218	726.89832	-10.77417	-648.43799	-751.44733	22.09484	491.58871	690.97449	21.60664	500.67316	-56.99847	1276.62097	-1006.78290	
1739	17.380	-844.06793	-13.29083	-643.20337	726.24292	-11.86962	-648.39941	-752.04883	22.78352	491.27905	690.23938	22.30312	500.33475	-58.23027	1274.84167	-1008.89258	
1740	17.390	-844.68536	-14.47925	-643.76215	725.51642	-13.27930	-648.86200	-752.81787	23.81907	491.03317	689.74261	23.39341	500.00278	-58.80713	1273.15198	-1011.18964	
1741	17.400	-845.19800	-15.45969	-644.03937	724.53632	-14.50863	-649.15155	-753.51929	24.63493	490.80756	689.01233	24.26412	499.63187	-59.08073	1271.19482	-1013.57434	
1742	17.410	-845.92908	-16.71665	-644.33423	723.64294	-15.94191	-649.65698	-754.12512	25.46907	490.32889	688.09155	24.98294	499.30951	-59.94707	1269.31091	-1016.03973	
1743	17.420	-846.54224	-17.91712	-644.55780	723.19214	-16.79190	-649.69312	-754.79486	26.51851	490.05945	687.57141	25.93726	498.99884	-60.46187	1267.10193	-1018.50531	
1744	17.430	-846.65894	-20.15084	-644.89044	722.64276	-18.03655	-650.01355	-755.51318	27.47986	489.60202	686.95630	27.09399	498.70978	-61.36337	1265.04333	-1021.32977	
1745	17.440	-847.57806	-21.13243	-645.11975	722.20813	-20.34776	-650.36786	-756.25220	28.43903	489.06525	686.57587	27.97190	498.38077	-62.43827	1263.15771	-1024.18030	
1746	17.450	-848.13940	-22.76204	-645.38977	721.83136	-21.00650	-650.58942	-757.14349	29.66970	488.79761	685.92902	28.88481	497.85071	-62.36894	1260.90979	-1027.19543	
1747	17.460	-848.65967	-23.58159	-645.59753	721.17542	-22.28145	-651.00806	-756.87463	29.55665	488.23776	685.25146	29.47194	497.50726	-62.64020	1258.94458	-1030.47815	
1748	17.470	-849.11194	-24.77576	-645.90576	720.84851	-23.59494	-651.08936	-757.20624	30.29554	488.02200	685.00513	30.49116	497.19101	-63.20824	1257.03491	-1034.02820	
1749	17.480	-849.60779	-25.88132	-645.74115	720.17242	-24.85726	-651.33636	-757.13800	30.64770	487.84933	684.71698	31.49442	497.01840	-63.42476	1254.86316	-1037.06580	
1750	17.490	-849.95697	-27.06276	-646.30872	720.01569	-25.86424	-651.51416	-757.46790	31.63971	487.49600	684.38470	32.20628	496.82474	-63.93104	1253.30835	-1040.20544	
1751	17.500	-850.23425	-28.08451	-646.42444	719.74432	-26.89736	-651.73792	-757.94379	32.61892	487.39194	683.98669	33.09374	496.47110	-63.92018	1251.35779	-1043.58667	
1752	17.510	-850.65918	-29.42175	-646.43915	719.39612	-28.12700	-651.75250	-758.56177	33.45978	487.01178	683.51666	33.66473	496.04813	-64.63020	1249.66333	-1046.31873	
1753	17.520	-850.84528	-30.21387	-646.89716	719.00317	-29.43540	-652.14008	-758.79889	34.03124	486.70291	683.40448	34.42371	495.81177	-64.72075	1248.01697	-1049.07019	
1754	17.530	-851.02417	-31.19102	-646.92847	718.79987	-30.23929	-652.41034	-758.94928	34.68432	486.50873	682.89276	35.05368	495.47986	-64.81287	1246.07141	-1051.68213	
1755	17.540	-850.99725	-32.32328	-647.14978	718.70831	-31.59751	-652.51251	-759.06812	35.54528	486.09445	682.95367	35.79552	495.22470	-65.08779	1244.60608	-1054.08496	
1756	17.550	-851.23291	-33.60314	-647.17090	718.64124	-32.35210	-652.73328	-759.20746	36.48437	485.82291	682.77515	36.53940	494.96359	-65.34721	1242.92920	-1056.60608	
1757	17.560	-851.20190	-34.48113	-647.42004	718.92456	-33.09155	-652.75916	-759.22791	36.98582	485.63763	682.45197	37.28401	494.72470	-65.37272	1241.39417	-1058.50598	
1758	17.570	-851.16357	-35.22557	-647.79395	718.33228	-34.58391	-653.22083	-759.32971	37.51721	485.33908	683.00977	38.19294	494.30106	-64.91959	1239.69226	-1060.56079	
1759	17.580	-851.12012	-36.71613	-647.81354	718.93243	-35.22610	-653.12457	-759.20227	38.22234	485.21402	682.88031	38.70118	493.99670	-65.12757	1237.77368	-1062.29492	
1760	17.590	-851.04358	-37.52455	-647.81049	718.89600	-36.12060	-653.32446	-759.09106	38.98835	484.95575	682.70593	39.28997	493.70151	-65.28247	1236.50403	-1064.07874	
1761	17.600	-850.93018	-38.57769	-648.22223	719.00964	-37.13287	-653.52533	-759.12799	39.65545	484.58029	682.67310	40.02898	493.53650	-65.40470	1234.93567	-1065.73584	
1762	17.610	-850.84692	-39.55111	-648.52466	718.96088	-37.94525	-653.59564	-759.18250	40.33584	484.21719	682.86401	40.79364	493.35333	-65.29826	1233.48193	-1067.50232	
1763	17.620	-850.80316	-40.12525	-648.58569	719.28241	-38.90491	-653.64691	-759.08795	40.86333	483.97079	683.11023	41.47131	493.08655	-65.38209	1232.04810	-1068.51404	
1764	17.630	-850.57941	-41.29183	-648.69495	719.67029	-40.08381	-653.87976	-758.71436	41.48772	483.62354	683.61847	42.11337	492.76837	-64.97928	1230.50598	-1069.79797	
1765	17.640	-850.26709	-42.18904	-648.85071	720.00671	-40.62249	-653.87811	-758.42474	41.92848	483.49484	684.11481	42.72454	492.49655	-64.71917	1229.19165	-1070.89526	
1766	17.650	-849.98517	-43.22868	-649.04852	720.50629	-41.50105	-653.91760	-758.08179	42.74926	483.24051	684.32239	43.28931	492.29233	-63.92999	1227.76538	-1072.08899	
1767	17.660	-849.74188	-43.74605	-649.07843	720.63708	-42.34116	-654.15887	-757.70984	43.36024	482.94702	684.50629	43.81483	491.98987	-63.94716	1226.63000	-1073.10706	
1768	17.670	-849.37762	-44.45110	-649.22095	720.76874	-43.23040	-654.47614	-757.38342	43.83256	482.74161	684.70172	44.33908	491.84262	-63.63150	1225.31799	-1074.09619	
1769	17.680	-848.82385	-45.43874	-649.31799	721.13342	-43.88511	-654.61719	-757.19012	44.25313	482.54053	684.93158	44.89821	491.62173	-63.43673	1224.22681	-1075.18384	
